<svg width="23" height="23" viewBox="0 0 23 23" fill="none" xmlns="http://www.w3.org/2000/svg">
<g clip-path="url(#clip0_1_61)">
<path d="M20.0804 19.4608L15.9419 15.3149L20.0804 19.4608ZM18.2353 9.77426C18.2353 11.8539 17.4092 13.8484 15.9386 15.319C14.4681 16.7896 12.4736 17.6157 10.3939 17.6157C8.3142 17.6157 6.3197 16.7896 4.84914 15.319C3.37858 13.8484 2.55243 11.8539 2.55243 9.77426C2.55243 7.69457 3.37858 5.70007 4.84914 4.22951C6.3197 2.75895 8.3142 1.9328 10.3939 1.9328C12.4736 1.9328 14.4681 2.75895 15.9386 4.22951C17.4092 5.70007 18.2353 7.69457 18.2353 9.77426V9.77426Z" stroke="white" stroke-width="2" stroke-linecap="round"/>
</g>
<defs>
<clipPath id="clip0_1_61">
<rect width="22.1406" height="22.1406" fill="white" transform="translate(0.707275 0.0877686)"/>
</clipPath>
</defs>
</svg>
